<?xml version="1.0" standalone="no"?>
<!DOCTYPE svg PUBLIC "-//W3C//DTD SVG 20010904//EN"
 "http://www.w3.org/TR/2001/REC-SVG-20010904/DTD/svg10.dtd">
<svg version="1.0" xmlns="http://www.w3.org/2000/svg"
 width="600.000000pt" height="600.000000pt" viewBox="0 0 600.000000 600.000000"
 preserveAspectRatio="xMidYMid meet">
<metadata>
Created by potrace 1.11, written by Peter Selinger 2001-2013
</metadata>
<g transform="translate(0.000000,600.000000) scale(0.100000,-0.100000)"
fill="#000000" stroke="none">
<path d="M0 3000 l0 -3000 3000 0 3000 0 0 3000 0 3000 -3000 0 -3000 0 0
-3000z m4068 2371 l42 -39 12 -814 c12 -854 5 -1266 -27 -1633 -50 -567 -147
-980 -311 -1324 -252 -527 -653 -802 -1209 -828 -142 -6 -232 9 -331 58 -125
62 -268 224 -343 390 -26 57 -231 788 -231 823 0 8 11 33 24 57 l25 43 343 88
c189 48 348 88 354 88 6 0 31 -15 56 -34 l45 -35 7 -133 c22 -423 97 -755 173
-766 36 -5 91 64 153 193 64 131 104 243 126 344 41 196 -18 1536 -102 2291
-41 376 -108 748 -165 928 l-31 96 23 44 c13 24 30 48 37 54 9 8 1172 142
1272 146 8 1 34 -16 58 -37z"/>
</g>
</svg>
